# xmcd CD database file
# Copyright (C) 1993-1998 Ti Kan
# 
# Track frame offsets:
#     150
#     17741
#     33249
#     49290
#     65358
#     86475
#     99531
#     115969
#     133134
#     151434
#     167352
#     183493
#     199911
#     216390
#     235309
#     254992
# 
# Disc length: 3609 seconds
# 
# Revision: 1
# Processed by: cddbd v1.4b41PL1 Copyright (c) Steve Scherf et al.
# Submitted via: DiscPlay 4.0.4
# 
DISCID=e90e1710
DTITLE=Shania Twain - Come On Over
DYEAR=1900
DGENRE=
TTITLE0=Man! I Feel Like A Woman!
TTITLE1=I'm Holdin' On To Love (To Save My Life)
TTITLE2=Love Gets Me Every Time
TTITLE3=Don't Be Stupid (You Know I Love You)
TTITLE4=From This Moment On
TTITLE5=Come On Over
TTITLE6=When
TTITLE7=What Ever You Do! Don't!
TTITLE8=If You Wanna Touch Her, Ask!
TTITLE9=You're Still The One
TTITLE10=Honey, I'm Home
TTITLE11=That Don't Impress Me Much
TTITLE12=Black Eyes, Blue Tears
TTITLE13=I Won't Leave You Lonely
TTITLE14=Rock This Country!
TTITLE15=You've Got A Way
EXTD=
EXTT0=
EXTT1=
EXTT2=
EXTT3=
EXTT4=Guest Vocal: bryan White\\n
EXTT5=
EXTT6=
EXTT7=
EXTT8=
EXTT9=
EXTT10=
EXTT11=
EXTT12=
EXTT13=
EXTT14=
EXTT15=
PLAYORDER=
